HIERARCHY
ROOT joint_Root
{
	OFFSET 0.0 0.0 0.0
	CHANNELS 6 Xposition Yposition Zposition Zrotation Xrotation Yrotation 
	JOINT Hips
	{
		OFFSET -17.1583 93.1646 452.98
		CHANNELS 6 Xposition Yposition Zposition Zrotation Xrotation Yrotation 
		JOINT Spine
		{
			OFFSET 15.7357 0.0 0.0
			CHANNELS 6 Xposition Yposition Zposition Zrotation Xrotation Yrotation 
			JOINT Chest
			{
				OFFSET 8.98455 -0.406207 0.0
				CHANNELS 6 Xposition Yposition Zposition Zrotation Xrotation Yrotation 
				JOINT Neck
				{
					OFFSET 16.3773 0.0 0.0
					CHANNELS 6 Xposition Yposition Zposition Zrotation Xrotation Yrotation 
					JOINT Head
					{
						OFFSET 6.45672 0.0 0.0
						CHANNELS 6 Xposition Yposition Zposition Zrotation Xrotation Yrotation 
						End Site
						{
							OFFSET 0.0 0.0 0.0
						}
					}
				}
				JOINT Shoulder_L
				{
					OFFSET 12.9942 -0.242716 4.98039
					CHANNELS 6 Xposition Yposition Zposition Zrotation Xrotation Yrotation 
					JOINT UpperArm_L
					{
						OFFSET 5.34809 0.0 0.0
						CHANNELS 6 Xposition Yposition Zposition Zrotation Xrotation Yrotation 
						JOINT LowerArm_L
						{
							OFFSET 24.3286 1.87007e-05 0.0
							CHANNELS 6 Xposition Yposition Zposition Zrotation Xrotation Yrotation 
							JOINT Hand_L
							{
								OFFSET 22.2916 0.0 0.0
								CHANNELS 6 Xposition Yposition Zposition Zrotation Xrotation Yrotation 
								End Site
								{
									OFFSET 0.0 0.0 0.0
								}
							}
						}
					}
				}
				JOINT Shoulder_R
				{
					OFFSET 12.9945 -0.242716 -4.98039
					CHANNELS 6 Xposition Yposition Zposition Zrotation Xrotation Yrotation 
					JOINT UpperArm_R
					{
						OFFSET -5.34813 0.0 0.0
						CHANNELS 6 Xposition Yposition Zposition Zrotation Xrotation Yrotation 
						JOINT LowerArm_R
						{
							OFFSET -24.3289 0.000322201 0.0
							CHANNELS 6 Xposition Yposition Zposition Zrotation Xrotation Yrotation 
							JOINT Hand_R
							{
								OFFSET -22.2915 -0.000108084 0.0
								CHANNELS 6 Xposition Yposition Zposition Zrotation Xrotation Yrotation 
								End Site
								{
									OFFSET 0.0 0.0 0.0
								}
							}
						}
					}
				}
			}
		}
		JOINT UpperLeg_L
		{
			OFFSET -2.19248 -6.46944 0.0
			CHANNELS 6 Xposition Yposition Zposition Zrotation Xrotation Yrotation 
			JOINT LowerLeg_L
			{
				OFFSET 39.0811 0.0 -1.23785e-05
				CHANNELS 6 Xposition Yposition Zposition Zrotation Xrotation Yrotation 
				JOINT Foot_L
				{
					OFFSET 40.9854 0.0 -1.26872e-05
					CHANNELS 6 Xposition Yposition Zposition Zrotation Xrotation Yrotation 
					JOINT Toes_L
					{
						OFFSET 11.7543 0.0 0.0
						CHANNELS 6 Xposition Yposition Zposition Zrotation Xrotation Yrotation 
						End Site
						{
							OFFSET 0.0 0.0 0.0
						}
					}
				}
			}
		}
		JOINT UpperLeg_R
		{
			OFFSET -2.19251 6.46944 0.0
			CHANNELS 6 Xposition Yposition Zposition Zrotation Xrotation Yrotation 
			JOINT LowerLeg_R
			{
				OFFSET -39.0811 -0.00228153 -0.0401928
				CHANNELS 6 Xposition Yposition Zposition Zrotation Xrotation Yrotation 
				JOINT Foot_R
				{
					OFFSET -40.9854 0.0 0.0
					CHANNELS 6 Xposition Yposition Zposition Zrotation Xrotation Yrotation 
					JOINT Toes_R
					{
						OFFSET -11.7543 0.0 0.0
						CHANNELS 6 Xposition Yposition Zposition Zrotation Xrotation Yrotation 
						End Site
						{
							OFFSET 0.0 0.0 0.0
						}
					}
				}
			}
		}
	}
}
MOTION
Frames:	4
Frame Time:	0.0333333
0.000000 0.000000 0.000000 0.000000 0.000000 -0.000000 -3.436770 93.590900 1.747690 87.379200 0.834030 -5.631680 15.735700 0.000005 -0.000001 -71.826500 88.725000 72.886900 8.984550 -0.406207 -0.000000 -10.179900 -0.957545 2.042630 16.377300 -0.000001 -0.000001 -6.181830 1.964000 -0.077300 6.456720 -0.000001 -0.000000 -14.277200 2.642540 -0.061234 12.994200 -0.242716 4.980390 -87.961800 -3.638020 -60.713100 5.348090 -0.000007 -0.000001 -88.126200 -66.076700 -130.830000 24.328600 0.000019 0.000005 0.000051 -14.206700 0.000001 22.291600 -0.000001 0.000005 51.858000 4.478300 16.957300 12.994500 -0.242716 -4.980390 93.871800 -6.456400 -58.957500 -5.348130 -0.000001 -0.000004 -83.876400 -65.288800 -129.478000 -24.328900 0.000322 -0.000009 -0.001125 -38.760000 -0.000238 -22.291500 -0.000108 -0.000004 45.693400 5.420960 -3.631840 -2.192480 -6.469440 -0.000000 -171.307000 -13.734000 -1.992640 39.081100 -0.000007 -0.000012 -0.018659 0.165279 6.440780 40.985400 -0.000006 -0.000013 -8.161820 17.775200 -63.298800 11.754300 -0.000000 0.000003 -0.002038 0.196816 -8.591740 -2.192510 6.469440 -0.000001 179.304000 10.660000 -179.859000 -39.081100 -0.002282 -0.040193 0.005118 -0.035316 2.864150 -40.985400 0.000008 0.000006 -8.903550 11.913900 -61.810500 -11.754300 -0.000006 -0.000006 -0.010822 0.277347 -5.303780
0.000000 0.000000 0.000000 0.000000 0.000000 -0.000000 -3.423970 93.594000 1.761800 87.385900 0.873749 -5.645470 15.735700 0.000005 -0.000001 -71.777800 88.718900 72.832300 8.984550 -0.406207 -0.000000 -10.190700 -0.962548 2.030280 16.377300 -0.000001 -0.000001 -6.200400 2.015890 -0.111036 6.456720 -0.000001 -0.000000 -14.191200 2.641590 -0.044848 12.994200 -0.242716 4.980390 -87.959000 -3.643910 -60.719100 5.348090 -0.000007 -0.000001 -88.199900 -65.953300 -130.999000 24.328600 0.000019 0.000005 0.000047 -14.239100 0.000001 22.291600 -0.000001 0.000005 51.855400 4.482390 16.890100 12.994500 -0.242716 -4.980390 93.888100 -6.461890 -58.872300 -5.348130 -0.000001 -0.000004 -83.369100 -65.277200 -128.995000 -24.328900 0.000322 -0.000009 -0.001124 -38.584500 -0.000236 -22.291500 -0.000108 -0.000004 45.363800 5.417000 -3.498730 -2.192480 -6.469440 -0.000000 -171.321000 -13.805700 -1.995000 39.081100 -0.000007 -0.000012 -0.018771 0.166712 6.423830 40.985400 -0.000006 -0.000013 -8.214990 17.864200 -63.298200 11.754300 -0.000000 0.000003 -0.002192 0.198726 -8.514040 -2.192510 6.469440 -0.000001 179.290000 10.688300 -179.863000 -39.081100 -0.002282 -0.040193 0.005152 -0.035825 2.878080 -40.985400 0.000008 0.000006 -8.959570 11.904500 -61.832000 -11.754300 -0.000006 -0.000006 -0.010604 0.275765 -5.368520
0.000000 0.000000 0.000000 0.000000 0.000000 -0.000000 -3.400490 93.584900 1.797240 87.382900 0.902113 -5.653080 15.735700 0.000005 -0.000001 -72.001800 88.726500 73.059700 8.984550 -0.406207 -0.000000 -10.179500 -0.948843 2.038490 16.377300 -0.000001 -0.000001 -6.149820 2.024870 -0.145201 6.456720 -0.000001 -0.000000 -14.278800 2.631800 -0.017328 12.994200 -0.242716 4.980390 -87.963000 -3.638780 -60.732800 5.348090 -0.000007 -0.000001 -87.908000 -65.933300 -130.843000 24.328600 0.000019 0.000005 0.000042 -14.231600 0.000001 22.291600 -0.000001 0.000005 51.834300 4.480350 16.923700 12.994500 -0.242716 -4.980390 93.876400 -6.434470 -58.841300 -5.348130 -0.000001 -0.000004 -83.489900 -65.162500 -129.132000 -24.328900 0.000322 -0.000009 -0.001123 -38.451900 -0.000235 -22.291500 -0.000108 -0.000004 45.287100 5.421440 -3.647950 -2.192480 -6.469440 -0.000000 -171.343000 -13.812400 -2.065980 39.081100 -0.000007 -0.000012 -0.019217 0.166498 6.583620 40.985400 -0.000006 -0.000013 -8.029950 17.860700 -63.443700 11.754300 -0.000000 0.000003 -0.002127 0.197928 -8.546510 -2.192510 6.469440 -0.000001 179.287000 10.695600 -179.867000 -39.081100 -0.002282 -0.040193 0.005140 -0.035044 2.922600 -40.985400 0.000008 0.000006 -8.912660 11.849800 -61.897500 -11.754300 -0.000006 -0.000006 -0.010966 0.278385 -5.261330
0.000000 0.000000 0.000000 0.000000 0.000000 -0.000000 -3.374620 93.586800 1.821230 87.402500 0.940406 -5.660930 15.735700 0.000005 -0.000001 -71.270100 88.732600 72.323800 8.984550 -0.406207 -0.000000 -10.157600 -0.974860 2.027980 16.377300 -0.000001 -0.000001 -6.177290 1.997710 -0.108882 6.456720 -0.000001 -0.000000 -14.335200 2.652490 -0.019753 12.994200 -0.242716 4.980390 -87.955000 -3.650160 -60.713300 5.348090 -0.000007 -0.000001 -88.230800 -65.753200 -131.207000 24.328600 0.000019 0.000005 0.000046 -13.934000 0.000001 22.291600 -0.000001 0.000005 51.775000 4.476440 16.987700 12.994500 -0.242716 -4.980390 93.878500 -6.441610 -58.855700 -5.348130 -0.000001 -0.000004 -83.227200 -65.220300 -128.879000 -24.328900 0.000322 -0.000009 -0.001123 -38.514400 -0.000236 -22.291500 -0.000108 -0.000004 45.132400 5.423040 -3.701940 -2.192480 -6.469440 -0.000000 -171.371000 -13.607400 -2.038210 39.081100 -0.000007 -0.000012 -0.018907 0.165191 6.529060 40.985400 -0.000006 -0.000013 -8.161030 17.744500 -63.400100 11.754300 -0.000000 0.000003 -0.002125 0.197905 -8.547430 -2.192510 6.469440 -0.000001 179.241000 10.672900 -179.859000 -39.081100 -0.002282 -0.040193 0.005167 -0.035487 2.929340 -40.985400 0.000008 0.000006 -8.947690 11.845800 -61.891700 -11.754300 -0.000006 -0.000006 -0.010699 0.276456 -5.340270
